<?xml version="1.0" standalone="no"?>
<!DOCTYPE svg PUBLIC "-//W3C//DTD SVG 20010904//EN"
 "http://www.w3.org/TR/2001/REC-SVG-20010904/DTD/svg10.dtd">
<svg version="1.0" xmlns="http://www.w3.org/2000/svg"
 width="2500.000000pt" height="2500.000000pt" viewBox="0 0 2500.000000 2500.000000"
 preserveAspectRatio="xMidYMid meet">
<metadata>
Created by potrace 1.11, written by Peter Selinger 2001-2013
</metadata>
<g transform="translate(0.000000,2500.000000) scale(0.100000,-0.100000)"
fill="#000000" stroke="none">
<path d="M12158 24995 c-2 -2 -73 -6 -158 -9 -85 -4 -173 -9 -195 -11 -22 -2
-83 -6 -135 -9 -53 -4 -107 -8 -120 -11 -14 -2 -63 -6 -109 -10 -47 -3 -94 -7
-105 -10 -12 -2 -48 -7 -81 -10 -33 -3 -76 -7 -95 -10 -19 -2 -55 -7 -80 -10
-25 -3 -56 -7 -70 -10 -14 -2 -47 -7 -75 -10 -57 -7 -221 -32 -268 -41 -12 -2
-37 -6 -57 -9 -20 -3 -47 -8 -60 -10 -14 -3 -41 -8 -60 -11 -58 -8 -469 -95
-520 -109 -12 -3 -66 -16 -85 -19 -27 -6 -123 -30 -220 -56 -44 -12 -87 -23
-95 -25 -57 -11 -414 -119 -635 -192 -288 -95 -669 -238 -862 -324 -23 -11
-44 -19 -47 -19 -3 0 -38 -15 -78 -34 -40 -18 -89 -40 -108 -49 -285 -124
-786 -385 -1080 -562 -51 -30 -94 -55 -96 -55 -1 0 -37 -22 -78 -50 -42 -27
-78 -50 -81 -50 -4 0 -21 -10 -38 -23 -18 -12 -40 -27 -49 -32 -51 -30 -406
-274 -545 -374 -183 -134 -521 -401 -627 -496 -6 -5 -41 -35 -76 -65 -36 -30
-67 -57 -70 -60 -3 -3 -45 -41 -95 -85 -297 -263 -684 -650 -944 -943 -94
-107 -108 -122 -154 -176 -23 -26 -52 -60 -65 -75 -51 -57 -241 -291 -335
-410 -54 -69 -104 -133 -110 -141 -23 -29 -153 -205 -197 -268 -25 -34 -59
-82 -76 -105 -17 -23 -73 -105 -125 -182 -424 -628 -748 -1220 -1047 -1910
-46 -105 -187 -462 -211 -530 -11 -33 -43 -125 -71 -205 -49 -139 -132 -402
-170 -540 -22 -77 -100 -368 -105 -390 -2 -8 -21 -94 -43 -190 -22 -96 -43
-188 -46 -205 -3 -16 -17 -91 -31 -165 -14 -74 -28 -146 -30 -160 -2 -14 -6
-34 -9 -46 -2 -12 -7 -45 -11 -75 -4 -30 -8 -56 -10 -59 -2 -3 -6 -28 -9 -55
-4 -28 -8 -60 -11 -73 -13 -69 -59 -448 -69 -583 -3 -30 -7 -75 -10 -100 -7
-59 -16 -195 -31 -479 -9 -177 -20 -769 -32 -1710 -13 -1058 -4 -8027 10
-8095 3 -11 8 -47 11 -80 52 -443 377 -879 822 -1103 128 -64 360 -137 499
-157 23 -3 52 -7 65 -10 115 -22 522 -23 635 -1 11 2 40 7 65 10 166 22 374
84 528 158 281 134 510 343 659 603 79 136 153 335 182 486 6 30 12 63 14 74
5 19 16 113 23 185 5 54 4 475 -3 1165 -9 860 -9 7830 0 8035 10 222 14 286
22 361 3 35 8 84 11 109 2 25 6 70 9 100 3 30 9 89 15 130 6 41 13 91 15 110
3 19 7 46 10 60 2 14 7 43 10 65 12 83 26 171 35 210 5 22 12 56 15 75 3 19
19 96 36 170 17 74 32 142 34 150 62 298 300 1022 440 1335 116 262 161 357
236 505 71 142 203 385 249 460 5 8 39 65 76 125 160 264 501 748 604 858 17
18 30 35 30 39 0 4 6 13 14 21 8 7 38 43 67 78 29 35 58 69 64 75 5 6 39 45
75 85 194 221 497 521 721 714 57 49 106 92 109 96 3 3 61 50 130 106 308 247
625 465 978 674 15 9 54 31 87 49 33 18 65 36 70 40 22 17 447 229 550 274 61
27 133 59 160 71 229 103 654 252 965 339 239 67 379 99 630 147 58 11 114 22
125 24 21 4 143 24 185 30 14 2 50 7 80 10 30 3 62 8 70 10 8 2 47 7 85 11 39
3 72 8 75 9 3 2 48 6 100 10 52 4 109 9 125 11 207 25 1081 25 1246 -1 13 -2
62 -6 109 -10 47 -3 96 -8 110 -10 14 -1 70 -8 125 -15 55 -6 111 -13 125 -15
14 -2 57 -9 95 -15 39 -6 86 -13 105 -16 19 -2 67 -11 105 -18 39 -8 86 -17
106 -20 19 -3 73 -14 120 -25 47 -11 96 -22 109 -24 47 -9 315 -78 420 -108
387 -112 757 -250 1120 -417 89 -41 369 -180 422 -210 21 -12 68 -38 105 -58
228 -125 526 -314 768 -489 130 -94 387 -294 464 -360 88 -76 222 -194 261
-229 82 -75 444 -440 520 -525 41 -46 80 -89 85 -95 6 -6 46 -54 90 -106 44
-52 83 -97 86 -100 14 -12 245 -316 319 -420 190 -265 384 -576 542 -870 80
-148 288 -572 288 -586 0 -3 9 -24 19 -47 98 -217 226 -560 325 -873 67 -213
185 -678 220 -867 18 -100 27 -145 31 -167 3 -14 7 -43 10 -65 3 -22 7 -49 9
-60 10 -52 23 -143 31 -215 3 -30 8 -66 10 -80 3 -14 7 -54 10 -90 4 -36 8
-81 10 -100 2 -19 7 -78 10 -130 4 -52 9 -115 11 -140 18 -243 27 -6661 11
-8035 -14 -1175 -14 -1298 9 -1460 88 -639 488 -1119 1090 -1306 79 -25 265
-66 329 -73 28 -3 75 -8 105 -12 111 -14 466 -7 555 10 11 2 43 7 70 10 28 4
102 20 165 35 390 96 718 323 943 652 109 159 186 353 214 534 2 17 6 41 8 55
12 67 16 315 20 1245 3 556 8 1429 12 1940 10 1275 10 4571 0 5285 -10 740
-22 1292 -32 1440 -2 30 -6 107 -10 170 -3 63 -8 135 -10 160 -2 25 -7 77 -10
115 -4 39 -8 84 -10 100 -3 17 -7 57 -10 90 -9 91 -24 227 -30 255 -2 14 -6
48 -9 75 -5 49 -9 80 -40 275 -19 123 -26 162 -31 180 -2 8 -6 32 -9 53 -3 20
-17 92 -31 160 -13 67 -26 133 -29 147 -2 14 -12 59 -21 100 -158 679 -300
1139 -525 1700 -85 212 -121 297 -216 507 -49 110 -263 538 -323 645 -115 209
-127 231 -163 293 -117 202 -299 492 -435 692 -89 132 -282 404 -293 413 -3 3
-13 16 -21 30 -30 46 -311 404 -433 550 -373 447 -812 905 -1205 1260 -46 41
-89 80 -95 85 -51 48 -323 277 -425 357 -69 55 -136 108 -147 118 -89 74 -379
283 -619 446 -219 148 -699 444 -720 444 -4 0 -19 8 -33 18 -56 39 -573 304
-747 384 -204 93 -424 187 -565 242 -52 21 -106 42 -120 48 -111 45 -454 164
-730 253 -235 76 -856 236 -1080 279 -14 2 -81 16 -151 30 -157 31 -272 52
-394 72 -16 2 -55 9 -85 14 -60 10 -332 46 -420 55 -30 3 -71 8 -90 10 -57 7
-189 18 -360 30 -52 3 -122 9 -155 12 -63 5 -952 13 -957 8z"/>
<path d="M7717 9474 c-1 -1 -51 -4 -112 -8 -123 -7 -141 -9 -270 -33 -42 -8
-163 -46 -220 -70 -141 -59 -274 -160 -363 -276 -77 -99 -158 -280 -188 -417
-4 -19 -8 -37 -9 -40 -2 -8 -16 -93 -20 -120 -2 -14 -7 -54 -11 -90 -9 -88
-11 -7263 -2 -7370 29 -330 124 -573 292 -744 100 -102 207 -171 333 -217 32
-11 65 -23 73 -26 36 -14 175 -43 245 -51 71 -8 1404 -8 1455 0 323 52 579
301 720 703 39 111 57 200 77 390 9 90 10 6962 0 7115 -8 133 -14 202 -21 256
-3 22 -8 59 -11 84 -32 247 -156 504 -311 649 -65 62 -145 121 -162 121 -6 0
-12 4 -14 8 -1 5 -41 25 -88 45 -77 32 -124 47 -200 63 -14 2 -32 7 -40 9 -47
13 -217 18 -658 19 -272 1 -494 0 -495 0z"/>
<path d="M16497 9474 c-1 -1 -56 -4 -122 -8 -151 -8 -191 -13 -290 -37 -224
-55 -365 -129 -497 -260 -85 -85 -171 -217 -209 -324 -56 -157 -76 -253 -95
-460 -8 -90 -8 -7235 0 -7337 35 -434 206 -741 501 -903 85 -46 227 -97 315
-111 19 -3 37 -7 40 -9 24 -15 245 -20 840 -19 686 0 696 1 775 23 258 71 453
251 589 542 59 127 91 233 120 404 19 105 21 544 21 3695 0 3046 -3 3663 -20
3749 -2 10 -6 44 -9 77 -9 83 -41 226 -70 310 -126 371 -404 599 -798 655 -54
7 -260 12 -586 13 -277 0 -504 0 -505 0z"/>
</g>
</svg>
